<?xml version="1.0" encoding="utf-8"?>
<!-- Generator: Adobe Illustrator 17.1.0, SVG Export Plug-In . SVG Version: 6.00 Build 0)  -->
<!DOCTYPE svg PUBLIC "-//W3C//DTD SVG 1.1//EN" "http://www.w3.org/Graphics/SVG/1.1/DTD/svg11.dtd">
<svg version="1.1" id="Layer_1" xmlns="http://www.w3.org/2000/svg" xmlns:xlink="http://www.w3.org/1999/xlink" x="0px" y="0px"
	 viewBox="0 0 792 612" enable-background="new 0 0 792 612" xml:space="preserve">
<g>
	
		<ellipse transform="matrix(0.9881 0.1539 -0.1539 0.9881 53.39 -35.6287)" fill="#39FFBE" cx="256.847" cy="327.072" rx="50.714" ry="79.84"/>
	
		<ellipse transform="matrix(0.9888 -0.149 0.149 0.9888 -42.1606 86.4523)" fill="#39FFBE" cx="555.833" cy="324.572" rx="50.714" ry="79.84"/>
	<ellipse fill="#39FFBE" cx="349.252" cy="222.799" rx="47.248" ry="83.701"/>
	<ellipse fill="#39FFBE" cx="457.033" cy="222.799" rx="47.248" ry="83.701"/>
	<path fill="#39FFBE" d="M354.575,325.572c0,0,60.533-57.072,112.248,2.5c0,0,81,91.428,70.584,122.511
		c0,0,1.5,47.998-109.495,16.499c0,0-82.778,13.924-114.135,10.712C313.777,477.794,218.242,473.547,354.575,325.572z"/>
</g>
</svg>
